<svg width="51" height="52" viewBox="0 0 51 52" fill="none" xmlns="http://www.w3.org/2000/svg">
<rect x="0.523438" y="0.956543" width="50.087" height="50.087" rx="25.0435" fill="white"/>
<path d="M34.8259 35.2592V27.8853C34.8259 26.6824 34.348 25.5287 33.4974 24.6781C32.6468 23.8275 31.4932 23.3497 30.2902 23.3497C29.1076 23.3497 27.7302 24.0731 27.0624 25.1584V23.614H23.1807V35.2592H27.0624V28.4001C27.0624 27.3288 27.925 26.4523 28.9963 26.4523C29.5129 26.4523 30.0083 26.6575 30.3736 27.0228C30.7389 27.3881 30.9441 27.8835 30.9441 28.4001V35.2592H34.8259ZM18.6589 21.4297C19.2788 21.4297 19.8734 21.1834 20.3117 20.7451C20.7501 20.3067 20.9963 19.7122 20.9963 19.0923C20.9963 17.7984 19.9528 16.741 18.6589 16.741C18.0353 16.741 17.4373 16.9887 16.9963 17.4296C16.5553 17.8706 16.3076 18.4687 16.3076 19.0923C16.3076 20.3862 17.365 21.4297 18.6589 21.4297ZM20.5928 35.2592V23.614H16.7389V35.2592H20.5928Z" fill="black"/>
</svg>
