<svg width="51" height="52" viewBox="0 0 51 52" fill="none" xmlns="http://www.w3.org/2000/svg">
<rect x="0.697266" y="0.956543" width="50.087" height="50.087" rx="25.0435" fill="white"/>
<path d="M22.7269 30.5251L30.5495 26.0034L22.7269 21.4816V30.5251ZM40.1507 18.7234C40.3466 19.4318 40.4823 20.3813 40.5727 21.5871C40.6782 22.7929 40.7234 23.8329 40.7234 24.7373L40.8139 26.0034C40.8139 29.3042 40.5727 31.7309 40.1507 33.2834C39.7739 34.6399 38.8997 35.5141 37.5431 35.8909C36.8347 36.0868 35.5385 36.2225 33.5489 36.3129C31.5895 36.4184 29.7959 36.4637 28.1379 36.4637L25.7414 36.5541C19.426 36.5541 15.4921 36.3129 13.9397 35.8909C12.5831 35.5141 11.7089 34.6399 11.3321 33.2834C11.1362 32.575 11.0005 31.6254 10.9101 30.4196C10.8046 29.2138 10.7594 28.1738 10.7594 27.2694L10.6689 26.0034C10.6689 22.7025 10.9101 20.2758 11.3321 18.7234C11.7089 17.3668 12.5831 16.4926 13.9397 16.1158C14.6481 15.9199 15.9443 15.7842 17.9339 15.6938C19.8933 15.5883 21.6869 15.5431 23.3449 15.5431L25.7414 15.4526C32.0568 15.4526 35.9907 15.6938 37.5431 16.1158C38.8997 16.4926 39.7739 17.3668 40.1507 18.7234Z" fill="black"/>
</svg>
