<svg width="191" height="94" viewBox="0 0 191 94" fill="none" xmlns="http://www.w3.org/2000/svg">
<path d="M155.198 0.733969C155.725 0.501267 156.543 0.225866 157.012 0.123391C157.482 0.0209167 158.586 -0.0281858 159.468 0.0166469C160.347 0.0636144 161.502 0.266429 162.029 0.471378C162.557 0.676327 163.398 1.11611 163.898 1.44702C164.397 1.78006 165.17 2.50806 165.614 3.06527C166.06 3.62247 166.645 4.65576 166.916 5.36027C167.345 6.47041 167.399 6.92515 167.32 8.77609C167.239 10.7124 167.162 11.0391 166.498 12.2773C166.094 13.0288 165.283 14.0856 164.692 14.6257C164.034 15.2277 163.084 15.8148 162.237 16.1415C161.111 16.577 160.48 16.6752 158.827 16.6752C157.006 16.6752 156.658 16.609 155.411 16.0198C154.647 15.659 153.652 15.0335 153.197 14.6321C152.741 14.2286 152.094 13.4921 151.756 12.9925C151.417 12.4929 150.984 11.5322 150.794 10.8576C150.533 9.94388 150.475 9.14116 150.563 7.70865C150.665 6.08613 150.794 5.5759 151.393 4.42092C151.814 3.6118 152.538 2.66818 153.17 2.1067C153.757 1.58579 154.671 0.968807 155.198 0.733969Z" fill="#20242D"/>
<path d="M56.2458 3.97686C57.1851 3.84664 58.0006 3.69079 58.0583 3.63101C58.1138 3.57124 58.355 3.58405 58.592 3.6609C58.8269 3.73776 59.7171 3.8872 60.5689 3.99394C61.4207 4.09855 62.6696 4.38036 63.3443 4.61733C64.0189 4.8543 65.0885 5.35814 65.7204 5.73815C66.3523 6.11816 67.3493 6.85896 67.9364 7.38842C68.5406 7.93281 69.3604 8.99812 69.8258 9.84354C70.2848 10.6783 70.8036 12.0446 71.0021 12.9391C71.2626 14.1133 71.3245 15.0527 71.2284 16.4617C71.1217 18.0735 70.9786 18.6329 70.3446 19.9309C69.9176 20.8041 69.1469 21.9206 68.5747 22.4949C68.0175 23.0542 67.1508 23.7502 66.6491 24.0427C66.1175 24.3522 65.7375 24.7301 65.7418 24.9479C65.7439 25.2019 66.3054 25.5926 67.5073 26.1754C68.4765 26.643 69.7383 27.4372 70.3125 27.9367C70.8868 28.4363 71.6404 29.2753 71.9906 29.8047C72.3386 30.3321 72.7677 31.1028 72.9449 31.5127C73.1199 31.9226 73.3975 32.7402 73.5597 33.3273C73.7198 33.9144 73.8543 35.2829 73.8565 36.3695C73.8565 37.4562 73.754 38.8481 73.6238 39.4651C73.4957 40.0821 73.1327 41.1132 72.8168 41.7601C72.4987 42.4049 71.8603 43.5065 71.3949 44.2046C70.9295 44.9027 69.9261 45.9936 69.1618 46.6255C68.3976 47.2596 67.0056 48.1392 66.0663 48.5832C65.1269 49.0251 63.7819 49.5653 63.0774 49.783C62.0463 50.1033 61.0856 50.1823 58.1672 50.1865C54.9392 50.1929 54.3607 50.1374 52.9367 49.6912C52.055 49.4137 50.6396 48.8608 49.7877 48.4637C48.7331 47.9684 47.7468 47.2681 46.6921 46.2669C45.5841 45.2144 44.8903 44.3177 44.2541 43.1179C43.7631 42.1956 43.2208 40.8635 43.0479 40.159C42.875 39.4544 42.6743 38.3742 42.4757 36.6364H46.8523C50.8787 36.6364 51.2288 36.6663 51.2288 37.01C51.2288 37.2149 51.502 37.96 51.8351 38.6645C52.2215 39.4822 52.8598 40.3297 53.6049 41.0129C54.2454 41.6 55.1484 42.1999 55.6138 42.3451C56.0792 42.4902 57.1787 42.6568 58.0604 42.7144C59.2303 42.7913 59.9754 42.7208 60.8251 42.4497C61.5702 42.2127 62.3729 41.7302 63.0667 41.1026C63.7371 40.492 64.3391 39.685 64.6572 38.9677C64.9796 38.2418 65.2059 37.2534 65.2657 36.3162C65.3404 35.1526 65.2635 34.5613 64.9177 33.6475C64.6209 32.8576 64.1086 32.1104 63.3507 31.3611C62.5287 30.552 61.8178 30.093 60.729 29.6745C59.463 29.1856 58.8354 29.0874 54.0041 28.9508L54.002 26.6558C53.9999 25.3941 53.9294 23.9978 53.6839 22.7511L54.9648 22.7575C55.6693 22.7596 56.8222 22.6123 57.5267 22.4266C58.2312 22.243 59.1385 21.9313 59.5442 21.7327C59.9498 21.5342 60.6714 20.9813 61.1453 20.503C61.7068 19.9373 62.1402 19.2264 62.3814 18.4749C62.5843 17.8366 62.7529 17.0744 62.7529 16.7819C62.7529 16.4873 62.5864 15.6803 62.3814 14.9843C62.1274 14.1219 61.7388 13.4344 61.156 12.8153C60.5369 12.1599 59.9797 11.8162 59.1279 11.5643C58.1736 11.2825 57.7551 11.2632 56.8862 11.4532C56.2991 11.5813 55.49 11.8952 55.0865 12.1535C54.683 12.4097 54.1386 12.9071 53.8739 13.2594C53.6113 13.6116 53.2356 14.4762 52.6826 16.4617L48.6456 16.4083C46.1157 16.3742 44.5701 16.4339 44.5039 16.5684C44.4462 16.6859 44.3011 16.7819 44.1837 16.7819C44.0449 16.7819 44.0406 16.577 44.1687 16.1948C44.2776 15.8725 44.4655 14.9352 44.5871 14.1133C44.728 13.1419 45.1017 12.0211 45.6503 10.911C46.1157 9.97163 46.912 8.7334 47.4223 8.16125C47.9304 7.58696 49.1152 6.64974 50.0546 6.07973C50.9939 5.50758 52.3859 4.8543 53.1502 4.62801C53.9145 4.40171 55.3064 4.10923 56.2458 3.97686Z" fill="#20242D"/>
<path d="M128.085 4.27788C129.082 4.09855 130.284 3.87226 130.753 3.77405C131.223 3.67798 131.75 3.64382 131.928 3.69933C132.105 3.75484 132.92 3.8872 133.742 3.99394C134.564 4.10069 135.766 4.34193 136.411 4.52767C137.056 4.71554 138.307 5.2215 139.186 5.65062C140.068 6.07973 141.364 6.88031 142.068 7.42898C142.773 7.97551 143.806 9.0088 144.363 9.72185C144.92 10.4349 145.379 11.0903 145.384 11.1778C145.386 11.2654 145.527 11.481 145.695 11.6582C145.862 11.8354 146.312 12.8431 147.391 15.8212L147.461 26.3889C147.525 35.5988 147.489 37.1616 147.181 38.5578C146.987 39.4374 146.453 40.9275 145.996 41.8669C145.54 42.8062 144.803 44.0551 144.359 44.6422C143.913 45.2293 142.882 46.2135 142.062 46.8305C141.244 47.4453 139.901 48.2758 139.079 48.675C138.258 49.0742 137.056 49.5631 136.411 49.7595C135.755 49.9581 134.103 50.1694 132.675 50.2378C130.743 50.3296 129.667 50.2719 128.298 50.0008C127.124 49.7702 125.73 49.2813 124.349 48.6152C123.175 48.0495 121.71 47.1891 121.093 46.7024C120.476 46.2156 119.53 45.2635 118.99 44.5888C118.45 43.9142 117.62 42.5436 117.146 41.5466C116.674 40.5496 116.157 39.1086 115.997 38.3443C115.781 37.2961 115.709 34.5527 115.709 27.1361C115.709 19.2968 115.773 17.0146 116.025 15.8212C116.198 14.9993 116.761 13.4622 117.274 12.4054C117.788 11.3486 118.533 10.0784 118.93 9.58095C119.327 9.08352 120.181 8.2381 120.826 7.70225C121.471 7.16425 122.961 6.24839 124.135 5.66556C125.66 4.90981 126.791 4.51059 128.085 4.27788Z" fill="#20242D"/>
<path d="M88.6384 12.241C90.0176 10.2171 91.7853 7.63606 92.5666 6.50244C93.348 5.36881 94.0461 4.5298 94.1187 4.63868C94.1934 4.75396 96.2856 4.81161 99.1036 4.77745C101.774 4.74542 103.961 4.79239 103.961 4.87992C103.961 4.96745 103.864 4.99094 103.747 4.93329C103.63 4.87352 103.534 4.89914 103.536 4.98667C103.536 5.0742 102.791 6.17793 101.881 7.43752C100.97 8.69924 100.032 10.0186 99.7975 10.373C99.5627 10.7274 98.4184 12.3371 97.2527 13.9532C96.0871 15.5672 94.9278 17.1769 94.6738 17.5291C94.4218 17.8814 94.1507 18.3383 94.0717 18.5432C93.9714 18.7994 94.044 18.9488 94.3001 19.0172C94.5051 19.0727 95.058 19.0257 95.5277 18.9147C95.9974 18.8037 96.862 18.7119 97.4491 18.7119C98.0362 18.7097 99.3812 18.8869 100.438 19.1047C101.8 19.3844 102.853 19.7729 104.054 20.4369C104.985 20.9514 106.33 21.9121 107.043 22.5739C107.846 23.3211 108.762 24.4931 109.46 25.6695C110.335 27.1447 110.683 28.0114 111.04 29.5913C111.426 31.3141 111.48 32.0699 111.392 34.6082C111.302 37.1701 111.2 37.8405 110.688 39.305C110.357 40.2443 109.714 41.6363 109.257 42.4006C108.802 43.1649 108.023 44.2622 107.528 44.8408C107.035 45.4172 106.006 46.3822 105.241 46.9821C104.477 47.582 103.085 48.421 102.146 48.8437C101.207 49.2664 99.7185 49.7617 98.8368 49.9453C97.9572 50.1289 96.0593 50.3082 94.6204 50.3424C93.1836 50.3787 92.0051 50.3338 92.0051 50.2463C92.0051 50.1588 91.6443 50.084 91.2046 50.0819C90.7648 50.0798 89.7315 49.8321 88.9096 49.5311C88.0876 49.2301 86.9348 48.7561 86.3477 48.4786C85.7606 48.1989 84.6569 47.456 83.8926 46.8283C83.1283 46.2007 82.0374 45.0671 81.4673 44.3113C80.8952 43.5534 80.1031 42.2853 79.7061 41.4933C79.3068 40.7012 78.7902 39.2602 78.5575 38.2909C78.3226 37.3217 78.1305 36.1688 78.1305 35.7291C78.1284 35.2893 78.0323 34.7363 77.9149 34.5015C77.7633 34.1983 77.8274 33.3465 78.1348 31.566C78.3739 30.1869 78.677 28.7202 78.8094 28.3103C78.9418 27.9004 79.4669 26.6985 79.9772 25.6417C80.4874 24.5849 81.4097 22.9389 82.0267 21.9846C82.6415 21.0282 83.8178 19.2733 84.6398 18.0821C85.4617 16.8929 87.2614 14.2628 88.6384 12.241Z" fill="#20242D"/>
<path d="M156.586 30.7014L156.524 28.9721C156.472 27.529 156.515 27.2429 156.79 27.2429C156.972 27.2429 157.156 27.324 157.202 27.4243C157.247 27.5225 158.569 27.9709 160.138 28.4192C161.707 28.8654 164.527 29.7834 166.406 30.4559C168.285 31.1305 170.686 32.0357 171.743 32.4712C172.8 32.9046 174.721 33.7906 176.013 34.4396C177.305 35.0907 179.179 36.1091 180.176 36.7068C181.173 37.3046 182.518 38.1628 183.165 38.6112C183.812 39.0616 185.003 40.0266 185.814 40.7546C186.628 41.4847 187.697 42.6098 188.195 43.2545C188.69 43.8993 189.439 45.1012 189.86 45.9231C190.362 46.9031 190.707 47.9684 190.865 49.0187C191.04 50.178 191.045 51.0319 190.878 52.1143C190.733 53.0729 190.347 54.2215 189.802 55.3167C189.335 56.256 188.432 57.648 187.795 58.4122C187.159 59.1765 185.93 60.387 185.061 61.1043C184.194 61.8217 182.667 62.9403 181.67 63.5872C180.673 64.2362 178.752 65.3464 177.401 66.0573C176.049 66.7661 173.697 67.8805 172.17 68.5316C170.644 69.1828 168.146 70.1541 166.619 70.6921C165.093 71.2301 162.595 72.0414 161.069 72.4982C159.542 72.9551 156.899 73.6788 155.198 74.1079C153.496 74.5371 150.999 75.1242 149.647 75.4145C148.296 75.7027 145.175 76.3005 142.709 76.7445C140.243 77.1865 138.082 77.6284 137.905 77.7266C137.728 77.8227 137.154 77.9337 136.624 77.97C136.097 78.0063 135.136 78.0852 134.489 78.1429C133.845 78.2027 132.978 78.3179 132.568 78.4012C132.158 78.4845 131.748 78.5357 131.661 78.5165C131.573 78.4973 130.324 78.6232 128.885 78.7962C127.446 78.9691 126.151 79.1143 126.003 79.1164C125.796 79.1207 125.749 78.1023 125.843 70.0474L127.338 69.8766C128.159 69.7827 130.561 69.4688 132.675 69.1806C134.788 68.8903 138.488 68.3096 140.894 67.8912C143.302 67.4727 145.463 67.0073 145.698 66.8579C145.932 66.7084 146.748 66.4672 147.512 66.322C148.277 66.1768 149.141 66.0637 149.434 66.0744C149.728 66.0829 150.183 65.9484 150.448 65.7755C150.712 65.6004 151.624 65.3656 152.476 65.2546C153.328 65.1436 155.488 64.6141 157.279 64.0804C159.071 63.5467 161.615 62.7119 162.937 62.2252C164.258 61.7405 166.541 60.8012 168.007 60.1415C169.476 59.4797 170.964 58.7218 171.316 58.4549C171.669 58.1881 172.029 57.9746 172.117 57.9789C172.204 57.981 172.973 57.5348 173.825 56.984C174.677 56.4353 176.214 55.1373 177.241 54.1019C178.626 52.7078 179.284 51.8475 179.79 50.78C180.296 49.704 180.49 48.959 180.552 47.8445C180.616 46.7024 180.528 46.0491 180.18 45.0692C179.928 44.3647 179.401 43.3549 179.008 42.8276C178.615 42.2981 177.638 41.2371 176.833 40.4685C176.03 39.7 174.7 38.6282 173.878 38.086C173.056 37.5416 171.376 36.5681 170.142 35.9212C168.908 35.2722 166.893 34.3414 165.659 33.8525C164.425 33.3615 161.88 32.452 156.586 30.7014Z" fill="#20242D"/>
<path d="M30.5204 28.5238C31.8717 28.1481 33.2167 27.7638 33.5092 27.6656C33.8038 27.5695 34.0664 27.482 34.0963 27.4734C34.1262 27.4649 34.1497 28.2014 34.1539 30.7654L31.3231 31.6984C29.7667 32.2108 27.3885 33.0647 26.0371 33.592C24.6878 34.1215 22.6213 35.0309 21.4471 35.6159C20.2729 36.1987 18.9279 36.9566 18.4582 37.3003C17.9886 37.6419 17.5317 37.9216 17.4442 37.9216C17.3566 37.9195 16.6863 38.3742 15.9562 38.9314C15.226 39.4886 14.0476 40.5219 13.3388 41.2264C12.519 42.0377 11.8038 43.0154 11.3832 43.895C11.016 44.6593 10.604 45.8121 10.4674 46.4569C10.256 47.4389 10.2731 47.8574 10.5677 49.0187C10.762 49.783 11.1036 50.7672 11.3277 51.207C11.5497 51.6468 12.5254 52.8359 13.4946 53.8479C14.577 54.9772 16.0373 56.2026 17.2841 57.0224C18.4006 57.7568 20.2003 58.8029 21.287 59.3452C22.3736 59.8896 24.2459 60.7307 25.45 61.2132C26.6541 61.6978 28.7441 62.4685 30.0934 62.9297C31.4448 63.3887 33.7505 64.1039 35.2171 64.5202C36.6859 64.9343 39.0386 65.5492 40.4476 65.8844C41.8566 66.2195 44.4505 66.7917 46.2118 67.1589C47.9731 67.5261 50.9043 68.0641 52.7232 68.3566C54.5443 68.649 57.8106 69.1187 59.9818 69.4048C62.1551 69.6887 65.3724 70.0687 67.1337 70.2502C68.895 70.4317 72.3065 70.7284 74.7125 70.9099C77.1207 71.0892 81.1065 71.3048 83.5723 71.386C86.0381 71.4692 90.6986 71.561 93.9265 71.593C97.4342 71.6272 99.9256 71.5674 100.118 71.4436C100.385 71.2707 100.455 70.2566 100.651 59.2384L107.167 65.4979C110.749 68.9394 114.688 72.7395 118.158 76.1318L115.79 78.4268C114.488 79.6885 111.221 82.8332 108.531 85.4164C105.841 87.9975 102.942 90.7836 100.534 93.1042L100.538 87.1799C100.543 82.5472 100.483 81.1979 100.263 80.9887C100.052 80.788 97.6156 80.6834 90.4958 80.5681C85.2781 80.4827 78.946 80.2692 76.4205 80.0899C73.897 79.9127 70.2464 79.6181 68.3079 79.4388C66.3715 79.2573 63.9698 79.0139 62.9707 78.8965C61.9737 78.7769 60.3405 78.5805 59.3414 78.4546C58.3444 78.3308 55.7014 77.9529 53.4704 77.6156C51.2395 77.2761 47.3967 76.6058 44.9309 76.1233C42.4651 75.6429 38.5262 74.7698 36.1778 74.1848C33.8294 73.5977 31.0925 72.8718 30.0934 72.5708C29.0964 72.2698 27.0298 71.5973 25.5034 71.0785C23.9769 70.5576 21.8634 69.7891 20.8066 69.3664C19.7499 68.9436 17.8285 68.1132 16.5368 67.5218C15.2452 66.9283 13.4199 66.0125 12.4806 65.4873C11.5412 64.9621 9.95712 63.995 8.96013 63.3396C7.96527 62.6842 6.88288 62.0287 6.55838 61.8814C6.23387 61.7341 5.96915 61.542 5.96701 61.4545C5.96701 61.3669 5.17283 60.4703 4.20573 59.4626C3.13402 58.3461 2.07298 56.9669 1.49229 55.94C0.967104 55.0092 0.416303 53.7198 0.268996 53.075C0.119554 52.4303 0 51.2283 0 50.4064C0.00213489 49.4265 0.166521 48.4316 0.478215 47.5179C0.738671 46.7494 1.28947 45.5495 1.69937 44.8493C2.1114 44.1469 3.26424 42.7486 4.26124 41.7409C5.26036 40.7311 6.79748 39.3819 7.67706 38.7435C8.55877 38.1031 9.99982 37.153 10.8794 36.6321C11.7611 36.1091 13.2982 35.2658 14.2952 34.7556C15.2943 34.2453 17.1666 33.3679 18.4582 32.8064C19.7499 32.2449 22.4398 31.2052 24.4359 30.4943C26.4321 29.7855 29.1711 28.8974 30.5204 28.5238Z" fill="#20242D"/>
<path d="M155.714 4.70511C156.229 4.19273 156.933 3.74227 157.439 3.60564C157.909 3.47968 158.631 3.36653 159.041 3.35586C159.451 3.34518 160.268 3.55654 160.855 3.82767C161.442 4.09666 162.181 4.64746 162.497 5.05309C162.815 5.45659 163.225 6.22088 163.411 6.74819C163.594 7.27765 163.746 7.9971 163.744 8.34936C163.744 8.70162 163.596 9.42321 163.419 9.95053C163.242 10.48 162.785 11.2891 162.403 11.7502C162.021 12.2114 161.325 12.7622 160.855 12.9735C160.386 13.1849 159.617 13.3599 159.147 13.3642C158.678 13.3706 157.956 13.2617 157.546 13.1272C157.136 12.9906 156.487 12.6533 156.105 12.3758C155.7 12.0811 155.144 11.3169 154.771 10.5376C154.416 9.80322 154.128 8.93859 154.13 8.61622C154.13 8.29385 154.29 7.47619 154.487 6.80157C154.741 5.93053 155.097 5.32209 155.714 4.70511Z" fill="#FBFBFB"/>
<path d="M128.138 12.1687C128.46 12.0064 129.229 11.7289 129.846 11.5538C130.512 11.3638 131.422 11.2784 132.088 11.3403C132.705 11.398 133.761 11.6563 134.436 11.9168C135.111 12.1751 135.941 12.6319 136.283 12.9308C136.622 13.2297 137.164 13.8574 137.487 14.327C137.807 14.7967 138.298 15.9026 138.576 16.7822C139.071 18.3556 139.079 18.5349 139.079 27.0296C139.079 34.8134 139.041 35.804 138.687 36.9569C138.471 37.6614 137.944 38.7651 137.512 39.4077C137.083 40.0525 136.394 40.8979 135.984 41.2864C135.574 41.675 134.733 42.1809 134.116 42.4115C133.428 42.6677 132.459 42.8278 131.607 42.8278C130.745 42.8278 129.797 42.6677 129.099 42.4051C128.482 42.1724 127.602 41.6686 127.143 41.2843C126.684 40.9 126.05 40.2019 125.734 39.7322C125.418 39.2625 124.996 38.3979 124.799 37.8108C124.483 36.8757 124.436 35.5564 124.419 27.2431C124.4 17.8774 124.406 17.7215 124.891 16.2484C125.267 15.102 125.636 14.4872 126.466 13.6097C127.062 12.9821 127.816 12.3331 128.138 12.1687Z" fill="#FBFBFB"/>
<path d="M91.3113 27.004C91.8685 26.7542 92.7096 26.4703 93.1793 26.3742C93.649 26.276 94.5862 26.2397 95.2608 26.2931C95.9354 26.3465 97.0413 26.5984 97.7159 26.8524C98.3906 27.1065 99.2082 27.5868 99.5306 27.9199C99.853 28.2529 100.19 28.5241 100.278 28.5241C100.365 28.5241 100.722 28.8849 101.068 29.3246C101.414 29.7644 101.932 30.6547 102.221 31.2994C102.56 32.0658 102.78 33.0308 102.848 34.0748C102.936 35.3835 102.863 35.9492 102.453 37.1704C102.174 38.0051 101.593 39.1131 101.14 39.6788C100.696 40.2361 99.8743 40.9982 99.3171 41.3697C98.7599 41.7433 97.7736 42.2236 97.1288 42.4393C96.2962 42.7189 95.4572 42.815 94.2425 42.7766C92.827 42.7296 92.2912 42.6058 91.1469 42.0486C90.2694 41.6216 89.3728 40.9555 88.696 40.2275C88.0001 39.4803 87.4429 38.6007 87.0949 37.6977C86.67 36.5982 86.5633 35.9471 86.574 34.5017C86.5825 33.1376 86.7085 32.369 87.0799 31.4062C87.4493 30.4497 87.9189 29.7879 88.9351 28.7909C89.6845 28.0565 90.7541 27.2517 91.3113 27.004Z" fill="#FBFBFB"/>
</svg>
