<svg width="23" height="36" viewBox="0 0 23 36" fill="none" xmlns="http://www.w3.org/2000/svg">
<path d="M0.114371 0.5L0.388305 0.691739C1.24074 1.2828 21.2487 15.1774 21.8068 15.5936C22.597 16.1463 23 16.8298 23 17.6227V18.0163C22.991 18.6287 22.7702 19.4905 21.8069 20.2112L21.8034 20.2135C21.3392 20.544 16.6152 23.8048 11.6137 27.2584C11.1735 27.5624 10.7281 27.8699 10.2816 28.1781L9.98389 28.3837C5.56672 31.4336 1.13383 34.4954 0.534301 34.918V35.4672L0.20718 34.9191C0.191277 34.8909 0.176633 34.8671 0.193613 34.8288H0.183281V31.9617C0.183281 30.9838 0.291992 30.5135 1.38449 29.7883C1.84979 29.4902 5.83436 26.7488 9.88173 23.9584L10.3579 23.6301C14.0876 21.0583 17.7555 18.5248 18.6562 17.9035C16.7544 16.5873 2.4973 6.72606 1.52043 6.01317L1.40489 5.92974C0.682633 5.40859 0.114371 4.99808 0.114371 3.91299V0.5ZM1.96398 10.4684C2.92855 11.0865 12.2567 17.5359 12.3506 17.6024L12.5623 17.7479L12.3472 17.8912C12.3472 17.8912 11.7167 18.3096 11.0171 18.7969C10.4182 19.2345 9.85784 19.4533 9.30089 19.4533C8.80622 19.4533 8.31603 19.2818 7.79979 18.9401C7.24994 18.5743 5.70077 17.5096 4.13272 16.428L3.91889 16.2804C2.63666 15.3955 1.35528 14.5094 0.07475 13.622L0 13.5701V11.3797C0 10.8766 0.217422 10.4786 0.598898 10.2857C1.00751 10.0782 1.518 10.1459 1.96398 10.4684Z" fill="white"/>
</svg>
